<?xml version="1.0" encoding="utf-8"?>
<!-- Generator: Adobe Illustrator 24.0.2, SVG Export Plug-In . SVG Version: 6.00 Build 0)  -->
<svg version="1.1" id="Layer_1" xmlns="http://www.w3.org/2000/svg" xmlns:xlink="http://www.w3.org/1999/xlink" x="0px" y="0px"
	 viewBox="0 0 200 200" style="enable-background:new 0 0 200 200;" xml:space="preserve">
<path d="M163.1,93.5H52.3l46.5-46.5c1.5-1.6,2.1-3.9,1.5-6.1c-0.6-2.1-2.3-3.8-4.4-4.4c-2.1-0.6-4.4,0-6.1,1.5L32.4,95.4
	c-0.5,0.5-1,1.2-1.3,1.9c-0.1,0.3-0.2,0.6-0.3,0.9c0,0.1,0,0.2,0,0.3c-0.2,0.5-0.3,1-0.3,1.4v0.6v0.7c0.2,1.3,0.9,2.4,1.8,3.3
	l57.5,57.3c1.2,1.2,2.8,1.9,4.5,1.9c1.7,0,3.3-0.7,4.5-1.9c1.2-1.2,1.9-2.8,1.9-4.5c0-1.7-0.7-3.3-1.9-4.5l-46.5-46.5h110.9
	c2.3,0,4.4-1.2,5.5-3.2s1.1-4.4,0-6.4S165.4,93.5,163.1,93.5L163.1,93.5z"/>
</svg>
