<?xml version="1.0" encoding="utf-8"?>
<!-- Generator: Adobe Illustrator 24.0.2, SVG Export Plug-In . SVG Version: 6.00 Build 0)  -->
<svg version="1.1" id="Layer_1" xmlns="http://www.w3.org/2000/svg" xmlns:xlink="http://www.w3.org/1999/xlink" x="0px" y="0px"
	 viewBox="0 0 200 200" style="enable-background:new 0 0 200 200;" xml:space="preserve">
<style type="text/css">
	.st0{fill:#FAA71A;}
	.st1{fill:#8E82BA;}
	.st2{fill:#F9E800;}
	.st3{fill:#EF4550;}
	.st4{fill:#76C043;}
	.st5{fill:#00BCEA;}
</style>
<g>
	<path class="st0" d="M100.2,102.5l88.1-61c0-3.7-1.3-6.2-3.7-7.6c-1.6-1-3.7-1.5-6.1-1.5c-8,0-15.3,1.6-22,4.2
		c-1,0.4-1.9,0.8-2.8,1.2c-0.6,0.3-1.2,0.6-1.8,0.9c-0.9,0.4-1.8,0.9-2.7,1.4c-0.9,0.5-1.7,1-2.6,1.5c-0.6,0.3-1.1,0.7-1.7,1
		c-0.3,0.2-0.6,0.4-0.8,0.5c-25.5,16.7-38,47.3-38,47.3l0,6.1h0v0v0h0v-6.1c0-3.3-2.6-6-5.9-6.1V102.5z"/>
	<path class="st1" d="M11.7,41.9C11.7,42,11.7,42,11.7,41.9c0,0.1,0,0.2,0,0.2c0.1,3,1.4,7,3.7,11.6c9.1,18.3,3,39.6,12.2,45.7
		c3.6,2.4,14.7,2.4,26.8,1.6c-8.3,4.7-19.5,12.2-21.4,19.7c-2.3,9.1,3.9,18.8,7.2,23.3l59.5-41.2L11.7,41.9z"/>
	<path class="st2" d="M100.3,102.9l59.5,41.2c3.3-4.4,9.5-14.2,7.2-23.3c-0.1-0.4-0.2-0.8-0.4-1.1c-0.4-1.1-1-2.3-1.8-3.4
		c-0.1-0.2-0.3-0.4-0.4-0.6c-0.3-0.4-0.6-0.7-0.9-1.1c-0.3-0.4-0.6-0.7-1-1.1c-0.5-0.5-1-1.1-1.6-1.6c-0.4-0.4-0.8-0.7-1.2-1.1
		c-1.6-1.4-3.3-2.8-5.1-4c-0.2-0.2-0.4-0.3-0.7-0.5c-2.8-2-5.8-3.7-8.4-5.2c12.1,0.8,23.2,0.8,26.8-1.6c9.1-6.1,3-27.4,12.2-45.7
		c2.2-4.3,3.4-8.1,3.7-11c0-0.3,0-0.5,0-0.8c0,0,0,0,0-0.1c0,0,0,0,0,0L100.3,102.9z"/>
	<path class="st3" d="M99.8,102.5V84.2c-3.3,0.1-5.9,2.8-5.9,6.1c0,0-9.5-23.2-28.8-40.2c-0.2-0.2-0.5-0.4-0.7-0.6
		c-1-0.8-2-1.6-3-2.4c-0.3-0.2-0.5-0.4-0.8-0.6c-0.5-0.4-1-0.8-1.6-1.2c-0.5-0.4-1.1-0.8-1.6-1.1c-0.5-0.4-1.1-0.7-1.6-1.1
		c-2.5-1.6-5.1-3.1-7.8-4.4c-0.6-0.3-1.2-0.6-1.8-0.9c-0.9-0.4-1.9-0.8-2.8-1.2c-0.6-0.2-1.3-0.5-1.9-0.7
		c-6.1-2.2-12.8-3.4-20.1-3.4c-4.2,0-7.2,1.4-8.8,4.3c-0.2,0.4-0.4,0.8-0.5,1.3c-0.1,0.3-0.2,0.6-0.3,0.9c-0.2,0.8-0.3,1.7-0.3,2.6
		L99.8,102.5z"/>
	<path class="st4" d="M100.2,103.2v21.2c1,9.9,5.8,22.6,8.6,26.6c0.9,1.2,1.7,2,2.5,2.6c2.5,1.7,5,1.5,8.1,4.6c0,0,0,0,0,0
		c0.1,0.1,0.3,0.3,0.4,0.5c0.4,0.5,0.9,1.1,1.4,1.7v0l0,0c4,5.5,9.1,9.1,15.2,6.1c0,0,8.9,2.2,12.2-6.1c0,0,7.4-3.4,9.1-13.9
		c0,0,0.7-0.8,1.7-2.1L100.2,103.2z"/>
	<path class="st5" d="M99.8,103.2l-59.4,41.1c1,1.4,1.7,2.1,1.7,2.1c1.7,10.5,9.1,13.9,9.1,13.9c3.3,8.2,12.2,6.1,12.2,6.1
		c6.1,3,11.2-0.6,15.2-6.1l0,0l0,0c0.3-0.4,0.6-0.8,0.9-1.2c3.8-4.5,6.7-3.6,9.6-6.1c0.6-0.5,1.3-1.2,1.9-2.1
		c2.8-4,7.7-16.7,8.6-26.6V103.2z"/>
</g>
</svg>
