<?xml version="1.0" encoding="utf-8"?>
<!-- Generator: Adobe Illustrator 24.0.2, SVG Export Plug-In . SVG Version: 6.00 Build 0)  -->
<svg version="1.1" id="Layer_1" xmlns="http://www.w3.org/2000/svg" xmlns:xlink="http://www.w3.org/1999/xlink" x="0px" y="0px"
	 viewBox="0 0 200 200" style="enable-background:new 0 0 200 200;" xml:space="preserve">
<style type="text/css">
	.st0{fill:#FFAE00;}
	.st1{fill:#FBEA00;}
	.st2{fill:#82CB49;}
	.st3{fill:#9E7FB8;}
	.st4{fill:#00C1F0;}
	.st5{fill:#FF383F;}
</style>
<g>
	<path class="st0" d="M117.5,64.4c-4.4,0-9,0-13.4,0c-22.6-0.2-46.8-1.3-69.1-8.6c-3.7-1.2-7.3-2.6-10.7-4.1
		c6.9-10.8,16.1-20,26.8-27.1c21.9,6.7,45.3,7.8,67.3,8c4.4,0,9,0,13.4,0c9.3,0,18.8,0,28.3,0.3c10.9,9.7,19.4,22,24.6,36
		c-3.3-0.7-6.8-1.4-10.4-1.9C155.4,64.3,136.1,64.4,117.5,64.4z"/>
	<path class="st1" d="M112,97.1c-4.4,0-9,0-13.4,0c-22.6-0.2-46.8-1.3-69.1-8.6c-6.2-2-11.9-4.4-17.4-7.3
		c2.1-10.2,6.1-19.7,11.3-28.3c3.5,1.5,7.3,3,11.1,4.2c22.5,7.4,46.8,8.5,69.5,8.7c4.4,0,9,0,13.4,0c18.6,0,37.8,0,56.5,2.6
		c3.9,0.6,7.6,1.2,11.1,2c3.2,9.2,5,19.1,5,29.4c0,1.5,0,3-0.1,4.5c-6.4-2.1-13.3-3.7-21.2-4.9C149.9,97.1,130.6,97.1,112,97.1z"/>
	<path class="st2" d="M160.5,134.6c-18.8-2.7-38-2.7-56.7-2.6c-4.4,0-9,0-13.4,0c-22.6-0.2-46.7-1.3-69.1-8.6c-3.1-1-6.1-2.1-9-3.3
		c-1.4-6.4-2.2-13-2.2-19.9c0-6,0.6-11.7,1.7-17.3c5.4,2.7,11.1,5.2,17.3,7.2c22.4,7.2,46.7,8.4,69.4,8.5c4.4,0,9,0,13.5,0
		c18.6,0,37.8,0,56.4,2.6c7.9,1.1,15,2.8,21.3,5c-0.8,11.8-3.8,22.9-8.7,33C174.9,137.2,168,135.7,160.5,134.6z"/>
	<path class="st3" d="M92.9,166.1c4.4,0,9,0,13.4,0c17.2,0,34.9,0,52.2,2.1c-15.8,13.5-36.2,21.7-58.6,21.7
		c-26.6,0-50.4-11.5-66.9-29.8C52.8,165.1,73.4,165.9,92.9,166.1z"/>
	<path class="st4" d="M106.5,164.7c-4.4,0-9,0-13.4,0c-20.1-0.1-41.3-1.1-61.5-6.4c-8.9-10.4-15.4-22.8-18.8-36.6
		c2.6,1.1,5.4,2.1,8.2,3c22.5,7.4,46.8,8.5,69.5,8.7c4.4,0,9,0,13.4,0c18.6,0,37.8,0,56.5,2.6c7.4,1.1,14,2.5,20,4.4
		c-5.1,10-11.9,19-20.2,26.5C142.2,164.7,124.1,164.6,106.5,164.7z"/>
	<path class="st5" d="M131.6,31.2c-4.4,0-9,0-13.4,0C96.7,31,73.9,30,52.5,23.6c13.7-8.6,30-13.5,47.5-13.5
		c22.2,0,42.5,8.1,58.2,21.4C149.3,31.2,140.4,31.2,131.6,31.2z"/>
</g>
</svg>
