<?xml version="1.0" encoding="utf-8"?>
<!-- Generator: Adobe Illustrator 24.0.2, SVG Export Plug-In . SVG Version: 6.00 Build 0)  -->
<svg version="1.1" id="Layer_1" xmlns="http://www.w3.org/2000/svg" xmlns:xlink="http://www.w3.org/1999/xlink" x="0px" y="0px"
	 viewBox="0 0 566.9 566.9" style="enable-background:new 0 0 566.9 566.9;" xml:space="preserve">
<style type="text/css">
	.st0{fill:#212124;}
</style>
<path class="st0" d="M448.7,249.9H118.3c-18.6,0-33.6,15-33.6,33.6s15,33.6,33.6,33.6h330.4c18.6,0,33.6-15,33.6-33.6
	S467.2,249.9,448.7,249.9L448.7,249.9z M118.3,205.1h330.4c18.6,0,33.6-15,33.6-33.6s-15-33.6-33.6-33.6H118.3
	c-18.6,0-33.6,15-33.6,33.6S99.7,205.1,118.3,205.1z M448.7,361.9H118.3c-18.6,0-33.6,15-33.6,33.6s15,33.6,33.6,33.6h330.4
	c18.6,0,33.6-15,33.6-33.6S467.2,361.9,448.7,361.9z"/>
</svg>
