<?xml version="1.0" encoding="utf-8"?>
<!-- Generator: Adobe Illustrator 24.0.2, SVG Export Plug-In . SVG Version: 6.00 Build 0)  -->
<svg version="1.1" id="Layer_1" xmlns="http://www.w3.org/2000/svg" xmlns:xlink="http://www.w3.org/1999/xlink" x="0px" y="0px"
	 viewBox="0 0 200 200" style="enable-background:new 0 0 200 200;" xml:space="preserve">
<style type="text/css">
	.st0{fill:#6BBE24;}
	.st1{fill:#00C1EF;}
	.st2{fill:#F9E800;}
	.st3{fill:#8D80B9;}
	.st4{fill:#FF383F;}
	.st5{fill:#FFAE00;}
</style>
<g>
	<path class="st0" d="M162.9,92.2c-24.7,12.5-53.5,10.3-80.6,8.5c-14.7-1-29.7-1.8-44.3,0.3c-3.5,0.5-7,1.2-10.4,2.3l18.1,17.7
		c1.8,1.7,2.9,4.1,3,6.6c27.2-2.5,54.6,3.5,81.9,1.4c7.2-0.6,14.3-1.7,21-3.6c0.5-1.6,1.3-3.2,2.6-4.4l32.9-32
		c4.6-4.5,3.4-11.7-1.2-14.9C179.8,81.4,171.9,87.7,162.9,92.2z"/>
	<path class="st1" d="M126.9,155.4c9.6-0.8,19-2.6,27.9-5.8l-3.4-20c-0.2-1-0.2-1.9-0.1-2.9c-20.8,5.6-43.3,4-64.9,2.6
		c-12.5-0.9-25.4-1.6-38-0.5c0,0.2-0.1,0.5-0.1,0.7L44.1,154C71.8,151.4,99.4,157.6,126.9,155.4z"/>
	<path class="st2" d="M80,74c-14.7-1-29.7-1.8-44.3,0.3c-9.2,1.4-18.3,4.3-25.6,9.5c0.4,1.8,1.2,3.6,2.8,5.2l13.8,13.4
		c3.8-1.1,7.7-2,11.8-2.6c29.2-4.1,58.6,3.1,87.9,0.7c13.2-1.1,26.2-4.1,37.7-10.2c8-4.3,15.1-9.9,20.7-16.8c-1-0.5-1.9-0.8-3.1-1
		l-27.6-4C130.9,77.5,104.8,75.6,80,74z"/>
	<path class="st3" d="M155.1,150.7c-22.7,8.3-48.1,6.5-72.1,4.9c-12.8-0.9-25.9-1.6-38.7-0.4l-3.3,19.5c-1.3,7.9,7,14,14.1,10.2
		l40.7-21.3c2.9-1.5,6.2-1.5,9,0l40.7,21.3c7.1,3.7,15.4-2.3,14.1-10.2L155.1,150.7z"/>
	<path class="st4" d="M110.1,46.4c3.8-0.2,7.7-0.5,11.5-1.1l-12.9-26.1c-3.5-7.2-13.9-7.2-17.4,0l-13,26.4
		C88.9,46.3,99.5,46.9,110.1,46.4z"/>
	<path class="st5" d="M36.1,73c29.2-4.1,58.6,3.1,87.9,0.7c9.5-0.8,18.8-2.5,27.6-5.7l-15.3-2.2c-3.2-0.5-5.9-2.5-7.3-5.3l-6.8-13.8
		c-13.8,1.8-27.8,1.2-41.7,0.4c-1-0.1-1.8-0.1-2.8-0.2L71,60.5c-1.4,2.9-4.1,4.9-7.3,5.3l-45.4,6.6c-5.4,0.8-8.5,5.4-8.3,9.9
		C17.5,77.1,26.7,74.4,36.1,73z"/>
</g>
</svg>
