<?xml version="1.0" encoding="utf-8"?>
<!-- Generator: Adobe Illustrator 24.0.2, SVG Export Plug-In . SVG Version: 6.00 Build 0)  -->
<svg version="1.1" id="Layer_1" xmlns="http://www.w3.org/2000/svg" xmlns:xlink="http://www.w3.org/1999/xlink" x="0px" y="0px"
	 viewBox="0 0 566.9 566.9" style="enable-background:new 0 0 566.9 566.9;" xml:space="preserve">
<style type="text/css">
	.st0{fill-rule:evenodd;clip-rule:evenodd;fill:#666666;}
</style>
<path class="st0" d="M307.4,39.9l63.8,139.6c1.3,3,4.2,5.1,7.5,5.4l152.4,17.5v0c6.7,0.7,12.9,4.1,17.3,9.2
	c4.3,5.2,6.5,11.9,6.1,18.6c-0.5,6.8-3.5,13.1-8.5,17.6l-113,103.8c-2.5,2.2-3.6,5.6-2.9,8.8l30.4,150.4c1.4,6.6,0.1,13.5-3.4,19.3
	s-9.3,9.9-15.8,11.5c-6.6,1.6-13.5,0.7-19.4-2.7l-133.6-75.4c-2.9-1.7-6.4-1.7-9.3,0L145.2,539h0c-5.9,3.4-12.8,4.3-19.4,2.7
	c-6.6-1.6-12.2-5.8-15.8-11.5c-3.6-5.7-4.8-12.6-3.5-19.2l30.4-150.4v0c0.7-3.2-0.4-6.6-2.9-8.8l-113-103.8
	c-5-4.6-8.1-10.9-8.5-17.6c-0.5-6.8,1.7-13.4,6.1-18.6c4.3-5.2,10.5-8.5,17.3-9.2l152.5-17.5c3.3-0.3,6.2-2.4,7.5-5.4l63.8-139.6
	c2.8-6.2,7.8-11,14.1-13.6c6.3-2.5,13.3-2.5,19.6,0C299.5,28.9,304.6,33.7,307.4,39.9L307.4,39.9z"/>
</svg>
