<?xml version="1.0" encoding="utf-8"?>
<!-- Generator: Adobe Illustrator 24.0.2, SVG Export Plug-In . SVG Version: 6.00 Build 0)  -->
<svg version="1.1" id="Layer_1" xmlns="http://www.w3.org/2000/svg" xmlns:xlink="http://www.w3.org/1999/xlink" x="0px" y="0px"
	 viewBox="0 0 100 100" style="enable-background:new 0 0 100 100;" xml:space="preserve">
<style type="text/css">
	.st0{fill:#FAE900;}
	.st1{fill:#FFAB00;}
	.st2{fill:#00C1EF;}
	.st3{fill:#75BE3A;}
	.st4{fill:#FF3C47;}
	.st5{fill:#8D80B9;}
</style>
<g>
	<path class="st0" d="M23.5,58c10.4,2.1,19.9,7,29.8,10.5c-1.6-3.3-2.8-7.2-3.1-11.8c1.6,0.4,3.2,0.6,4.8,0.6c0.1,0,0.2,0,0.3,0
		c0,0,0,0,0.1,0c2.1-0.1,4.1-0.6,6.1-1.5c-5.5-1.5-10.8-3.7-16-5.8c-6.4-2.6-12.8-5.2-19.6-6.4c-2.7-0.5-5.4-0.8-8.1-0.6
		c-2.5,4.6-4.5,9.5-5.8,14.7C15.7,56.9,19.7,57.2,23.5,58z"/>
	<path class="st1" d="M55.5,83.6c3.1,0.7,6.2,1.2,9.4,1.3c-3.4-5.1-8-9.6-11.2-15.8c-3.8-1.3-7.5-2.8-11.1-4.3
		c-6.4-2.6-12.8-5.2-19.6-6.4c-3.7-0.7-7.5-0.9-11.2-0.3c-0.9,3.8-1.5,7.7-1.7,11.7c2.4,0,4.9,0.3,7.3,0.8
		C30.6,73.3,42.4,80.5,55.5,83.6z"/>
	<path class="st2" d="M67.9,42.3c4.5,1.1,9.1,1.6,13.6,1.3L68.1,32c0.8-1.1,1.7-2.3,2.7-3.7c-3-0.6-6-1.4-8.9-2.4
		c-0.1,0.1-0.2,0.2-0.3,0.3l-0.8-0.7c-2.9-1-5.7-2.1-8.4-3.2c-3.4-1.4-6.8-2.8-10.3-4.1c-5.2,2.9-9.9,6.6-14.1,10.8
		c0.6,0.1,1.2,0.2,1.8,0.3C43,32,54.8,39.3,67.9,42.3z"/>
	<path class="st3" d="M18,42.3c2.8-0.1,5.6,0.2,8.3,0.7c12.4,2.5,23.6,9,35.8,12.4c0.4-0.2,0.8-0.4,1.1-0.6l7.2,1.2l8.4,1.3
		c1.5-0.1,3.1-0.3,4.6-0.6c2.2-0.5,4.4-1.1,6.5-2c0.2-0.8,0.1-1.6-0.1-2.4c0,0,0-0.1,0-0.1c-0.1-0.2-0.1-0.5-0.2-0.7
		c-0.1-0.2-0.2-0.5-0.4-0.7c-0.1-0.2-0.2-0.3-0.3-0.4c-0.2-0.3-0.5-0.6-0.8-0.8l-6.1-5.3c-11.5,0.9-22.7-3.6-33.3-7.9
		c-6.4-2.6-12.8-5.2-19.6-6.4c-0.6-0.1-1.1-0.2-1.7-0.3C23.9,33.4,20.7,37.7,18,42.3z"/>
	<path class="st0" d="M80.8,57.6l0.1,0c2.3,2,5.7,1.7,7.7-0.5c0.5-0.6,0.8-1.2,1.1-1.9c-2.3,0.9-4.6,1.6-7.1,2.1
		C82,57.4,81.4,57.5,80.8,57.6z"/>
	<path class="st4" d="M36.4,77.5c-6.4-2.6-12.8-5.2-19.6-6.4c-2.2-0.4-4.5-0.7-6.8-0.7c-0.1,2.3-0.1,4.7,0.1,7
		c0.2,2.3,0.4,4.6,0.8,6.8C30.5,82.9,34.1,98.5,69,96.2c-0.3-4.1-1.8-7.5-3.8-10.7C55.3,85.1,45.6,81.2,36.4,77.5z"/>
	<path class="st5" d="M42.6,17.9c5.7,2.1,11.3,4.6,17.1,6.7l-2-1.7l11.1-12.7C59.3,10.9,50.4,13.6,42.6,17.9z"/>
	<path class="st5" d="M65.8,26.6c1.8,0.5,3.5,0.9,5.3,1.2c5.5-7.5,13.1-18,15.9-21.8c0.6-0.8,0.2-1.5-0.3-2c-0.6-0.4-1.3-0.6-2,0
		c-4,3.8-15.6,14.9-22.5,21.5C63.5,25.9,64.7,26.2,65.8,26.6z"/>
</g>
</svg>
